<svg width="156" height="156" viewBox="0 0 156 156" fill="none" xmlns="http://www.w3.org/2000/svg">
<path d="M0 10C0 4.47716 4.47715 0 10 0H146C151.523 0 156 4.47715 156 10V146C156 151.523 151.523 156 146 156H10C4.47716 156 0 151.523 0 146V10Z" fill="#313131"/>
<path d="M104.86 98V60.04H111.1L122.696 92.54C122.626 91.6733 122.54 90.616 122.436 89.368C122.366 88.0853 122.297 86.7507 122.228 85.364C122.193 83.9427 122.176 82.608 122.176 81.36V60.04H126.7V98H120.46L108.916 65.5C108.985 66.332 109.054 67.3893 109.124 68.672C109.193 69.92 109.245 71.2547 109.28 72.676C109.349 74.0627 109.384 75.3973 109.384 76.68V98H104.86ZM82.26 147V113.252H71.86V108.988H97.34V113.252H86.94V147H82.26ZM105.38 147V109.04H127.22V113.304H110.008V125.056H125.4V129.268H110.008V142.736H127.22V147H105.38Z" fill="white"/>
<path d="M104.86 98H104.36V98.5H104.86V98ZM104.86 60.04V59.54H104.36V60.04H104.86ZM111.1 60.04L111.571 59.872L111.452 59.54H111.1V60.04ZM122.696 92.54L122.225 92.708L123.194 92.5001L122.696 92.54ZM122.436 89.368L121.936 89.395L121.937 89.4023L121.937 89.4095L122.436 89.368ZM122.228 85.364L121.728 85.3762L121.728 85.389L122.228 85.364ZM122.176 60.04V59.54H121.676V60.04H122.176ZM126.7 60.04H127.2V59.54H126.7V60.04ZM126.7 98V98.5H127.2V98H126.7ZM120.46 98L119.989 98.1674L120.107 98.5H120.46V98ZM108.916 65.5L109.387 65.3326L108.417 65.5415L108.916 65.5ZM109.124 68.672L108.624 68.699L108.624 68.6997L109.124 68.672ZM109.28 72.676L108.78 72.6882L108.78 72.701L109.28 72.676ZM109.384 98V98.5H109.884V98H109.384ZM104.86 98H105.36V60.04H104.86H104.36V98H104.86ZM104.86 60.04V60.54H111.1V60.04V59.54H104.86V60.04ZM111.1 60.04L110.629 60.208L122.225 92.708L122.696 92.54L123.167 92.372L111.571 59.872L111.1 60.04ZM122.696 92.54L123.194 92.5001C123.125 91.6327 123.038 90.5748 122.934 89.3265L122.436 89.368L121.937 89.4095C122.041 90.6572 122.128 91.7139 122.197 92.5799L122.696 92.54ZM122.436 89.368L122.935 89.341C122.866 88.0591 122.796 86.7251 122.727 85.339L122.228 85.364L121.728 85.389C121.798 86.7763 121.867 88.1116 121.936 89.395L122.436 89.368ZM122.228 85.364L122.728 85.3518C122.693 83.934 122.676 82.6034 122.676 81.36H122.176H121.676C121.676 82.6126 121.693 83.9513 121.728 85.3762L122.228 85.364ZM122.176 81.36H122.676V60.04H122.176H121.676V81.36H122.176ZM122.176 60.04V60.54H126.7V60.04V59.54H122.176V60.04ZM126.7 60.04H126.2V98H126.7H127.2V60.04H126.7ZM126.7 98V97.5H120.46V98V98.5H126.7V98ZM120.46 98L120.931 97.8326L109.387 65.3326L108.916 65.5L108.445 65.6674L119.989 98.1674L120.46 98ZM108.916 65.5L108.417 65.5415C108.486 66.3668 108.555 67.4189 108.624 68.699L109.124 68.672L109.623 68.645C109.553 67.3598 109.484 66.2972 109.414 65.4585L108.916 65.5ZM109.124 68.672L108.624 68.6997C108.693 69.9419 108.745 71.2714 108.78 72.6882L109.28 72.676L109.78 72.6638C109.745 71.238 109.693 69.8981 109.623 68.6443L109.124 68.672ZM109.28 72.676L108.78 72.701C108.849 74.08 108.884 75.4063 108.884 76.68H109.384H109.884C109.884 75.3884 109.849 74.0453 109.779 72.651L109.28 72.676ZM109.384 76.68H108.884V98H109.384H109.884V76.68H109.384ZM109.384 98V97.5H104.86V98V98.5H109.384V98ZM82.26 147H81.76V147.5H82.26V147ZM82.26 113.252H82.76V112.752H82.26V113.252ZM71.86 113.252H71.36V113.752H71.86V113.252ZM71.86 108.988V108.488H71.36V108.988H71.86ZM97.34 108.988H97.84V108.488H97.34V108.988ZM97.34 113.252V113.752H97.84V113.252H97.34ZM86.94 113.252V112.752H86.44V113.252H86.94ZM86.94 147V147.5H87.44V147H86.94ZM82.26 147H82.76V113.252H82.26H81.76V147H82.26ZM82.26 113.252V112.752H71.86V113.252V113.752H82.26V113.252ZM71.86 113.252H72.36V108.988H71.86H71.36V113.252H71.86ZM71.86 108.988V109.488H97.34V108.988V108.488H71.86V108.988ZM97.34 108.988H96.84V113.252H97.34H97.84V108.988H97.34ZM97.34 113.252V112.752H86.94V113.252V113.752H97.34V113.252ZM86.94 113.252H86.44V147H86.94H87.44V113.252H86.94ZM86.94 147V146.5H82.26V147V147.5H86.94V147ZM105.38 147H104.88V147.5H105.38V147ZM105.38 109.04V108.54H104.88V109.04H105.38ZM127.22 109.04H127.72V108.54H127.22V109.04ZM127.22 113.304V113.804H127.72V113.304H127.22ZM110.008 113.304V112.804H109.508V113.304H110.008ZM110.008 125.056H109.508V125.556H110.008V125.056ZM125.4 125.056H125.9V124.556H125.4V125.056ZM125.4 129.268V129.768H125.9V129.268H125.4ZM110.008 129.268V128.768H109.508V129.268H110.008ZM110.008 142.736H109.508V143.236H110.008V142.736ZM127.22 142.736H127.72V142.236H127.22V142.736ZM127.22 147V147.5H127.72V147H127.22ZM105.38 147H105.88V109.04H105.38H104.88V147H105.38ZM105.38 109.04V109.54H127.22V109.04V108.54H105.38V109.04ZM127.22 109.04H126.72V113.304H127.22H127.72V109.04H127.22ZM127.22 113.304V112.804H110.008V113.304V113.804H127.22V113.304ZM110.008 113.304H109.508V125.056H110.008H110.508V113.304H110.008ZM110.008 125.056V125.556H125.4V125.056V124.556H110.008V125.056ZM125.4 125.056H124.9V129.268H125.4H125.9V125.056H125.4ZM125.4 129.268V128.768H110.008V129.268V129.768H125.4V129.268ZM110.008 129.268H109.508V142.736H110.008H110.508V129.268H110.008ZM110.008 142.736V143.236H127.22V142.736V142.236H110.008V142.736ZM127.22 142.736H126.72V147H127.22H127.72V142.736H127.22ZM127.22 147V146.5H105.38V147V147.5H127.22V147Z" fill="white"/>
<path d="M39.808 47.52C37.52 47.52 35.5267 47.0867 33.828 46.22C32.164 45.3533 30.864 44.1053 29.928 42.476C29.0267 40.812 28.576 38.8533 28.576 36.6V19.44C28.576 17.152 29.0267 15.1933 29.928 13.564C30.864 11.9347 32.164 10.6867 33.828 9.82C35.5267 8.95333 37.52 8.52 39.808 8.52C42.096 8.52 44.072 8.97067 45.736 9.872C47.4 10.7387 48.6827 11.9867 49.584 13.616C50.4853 15.2453 50.936 17.1867 50.936 19.44H46.256C46.256 17.2907 45.684 15.644 44.54 14.5C43.4307 13.3213 41.8533 12.732 39.808 12.732C37.7627 12.732 36.1507 13.304 34.972 14.448C33.828 15.592 33.256 17.2387 33.256 19.388V36.6C33.256 38.7493 33.828 40.4133 34.972 41.592C36.1507 42.736 37.7627 43.308 39.808 43.308C41.8533 43.308 43.4307 42.736 44.54 41.592C45.684 40.4133 46.256 38.7493 46.256 36.6H50.936C50.936 38.8187 50.4853 40.76 49.584 42.424C48.6827 44.0533 47.4 45.3187 45.736 46.22C44.072 47.0867 42.096 47.52 39.808 47.52ZM57.7797 47L67.6597 9.04H73.9517L83.7797 47H79.0477L76.5517 36.912H65.0597L62.5637 47H57.7797ZM65.9957 32.96H75.5637L72.6517 21.26C72.097 19.0413 71.6637 17.1867 71.3517 15.696C71.0397 14.2053 70.849 13.2347 70.7797 12.784C70.7104 13.2347 70.5197 14.2053 70.2077 15.696C69.8957 17.1867 69.4624 19.024 68.9077 21.208L65.9957 32.96ZM28.784 96V58.04H40.536C42.7893 58.04 44.7653 58.508 46.464 59.444C48.1627 60.3453 49.48 61.6107 50.416 63.24C51.352 64.8693 51.82 66.776 51.82 68.96C51.82 71.5253 51.144 73.7267 49.792 75.564C48.4747 77.4013 46.672 78.6667 44.384 79.36L52.34 96H46.828L39.548 79.88H33.464V96H28.784ZM33.464 75.668H40.536C42.4773 75.668 44.0373 75.0613 45.216 73.848C46.3947 72.6 46.984 70.9707 46.984 68.96C46.984 66.9147 46.3947 65.2853 45.216 64.072C44.0373 62.8587 42.4773 62.252 40.536 62.252H33.464V75.668Z" fill="white"/>
<path d="M33.828 46.22L33.597 46.6635L33.6008 46.6654L33.828 46.22ZM29.928 42.476L29.4882 42.7142L29.4944 42.7251L29.928 42.476ZM29.928 13.564L29.4944 13.3149L29.4905 13.322L29.928 13.564ZM33.828 9.82L33.6008 9.3746L33.597 9.37654L33.828 9.82ZM45.736 9.872L45.4978 10.3117L45.505 10.3155L45.736 9.872ZM50.936 19.44V19.94H51.436V19.44H50.936ZM46.256 19.44H45.756V19.94H46.256V19.44ZM44.54 14.5L44.1759 14.8427L44.1811 14.8482L44.1864 14.8536L44.54 14.5ZM34.972 14.448L34.6237 14.0892L34.6184 14.0944L34.972 14.448ZM34.972 41.592L34.6132 41.9402L34.6184 41.9456L34.6238 41.9508L34.972 41.592ZM44.54 41.592L44.1812 41.2438L44.1811 41.2439L44.54 41.592ZM46.256 36.6V36.1H45.756V36.6H46.256ZM50.936 36.6H51.436V36.1H50.936V36.6ZM49.584 42.424L50.0215 42.666L50.0236 42.6621L49.584 42.424ZM45.736 46.22L45.967 46.6635L45.9741 46.6596L45.736 46.22ZM39.808 47.52V47.02C37.5834 47.02 35.6708 46.5989 34.0552 45.7746L33.828 46.22L33.6008 46.6654C35.3825 47.5744 37.4566 48.02 39.808 48.02V47.52ZM33.828 46.22L34.059 45.7765C32.4798 44.9541 31.2501 43.7736 30.3616 42.2269L29.928 42.476L29.4944 42.7251C30.4779 44.4371 31.8482 45.7526 33.597 46.6635L33.828 46.22ZM29.928 42.476L30.3676 42.2379C29.5128 40.6597 29.076 38.786 29.076 36.6H28.576H28.076C28.076 38.9207 28.5405 40.9643 29.4884 42.7141L29.928 42.476ZM28.576 36.6H29.076V19.44H28.576H28.076V36.6H28.576ZM28.576 19.44H29.076C29.076 17.2175 29.5135 15.3461 30.3655 13.806L29.928 13.564L29.4905 13.322C28.5398 15.0405 28.076 17.0865 28.076 19.44H28.576ZM29.928 13.564L30.3616 13.8131C31.2501 12.2664 32.4798 11.0859 34.059 10.2635L33.828 9.82L33.597 9.37654C31.8482 10.2874 30.4779 11.6029 29.4944 13.3149L29.928 13.564ZM33.828 9.82L34.0552 10.2654C35.6708 9.44111 37.5834 9.02 39.808 9.02V8.52V8.02C37.4566 8.02 35.3825 8.46556 33.6008 9.37462L33.828 9.82ZM39.808 8.52V9.02C42.0301 9.02 43.9208 9.4574 45.4979 10.3116L45.736 9.872L45.9741 9.43235C44.2232 8.48393 42.1619 8.02 39.808 8.02V8.52ZM45.736 9.872L45.505 10.3155C47.0826 11.1371 48.2931 12.3154 49.1465 13.858L49.584 13.616L50.0215 13.374C49.0722 11.658 47.7174 10.3402 45.967 9.42854L45.736 9.872ZM49.584 13.616L49.1465 13.858C49.999 15.3992 50.436 17.2536 50.436 19.44H50.936H51.436C51.436 17.1197 50.9716 15.0915 50.0215 13.374L49.584 13.616ZM50.936 19.44V18.94H46.256V19.44V19.94H50.936V19.44ZM46.256 19.44H46.756C46.756 17.2031 46.159 15.4119 44.8936 14.1464L44.54 14.5L44.1864 14.8536C45.209 15.8761 45.756 17.3782 45.756 19.44H46.256ZM44.54 14.5L44.9041 14.1573C43.6767 12.8532 41.9526 12.232 39.808 12.232V12.732V13.232C41.7541 13.232 43.1846 13.7894 44.1759 14.8427L44.54 14.5ZM39.808 12.732V12.232C37.6662 12.232 35.9173 12.8337 34.6238 14.0892L34.972 14.448L35.3202 14.8068C36.384 13.7743 37.8591 13.232 39.808 13.232V12.732ZM34.972 14.448L34.6184 14.0944C33.353 15.3599 32.756 17.1511 32.756 19.388H33.256H33.756C33.756 17.3262 34.303 15.8241 35.3256 14.8016L34.972 14.448ZM33.256 19.388H32.756V36.6H33.256H33.756V19.388H33.256ZM33.256 36.6H32.756C32.756 38.8378 33.3533 40.6422 34.6132 41.9402L34.972 41.592L35.3308 41.2438C34.3027 40.1845 33.756 38.6608 33.756 36.6H33.256ZM34.972 41.592L34.6238 41.9508C35.9173 43.2063 37.6662 43.808 39.808 43.808V43.308V42.808C37.8591 42.808 36.384 42.2657 35.3202 41.2332L34.972 41.592ZM39.808 43.308V43.808C41.9483 43.808 43.6706 43.2068 44.899 41.9401L44.54 41.592L44.1811 41.2439C43.1907 42.2652 41.7584 42.808 39.808 42.808V43.308ZM44.54 41.592L44.8988 41.9402C46.1587 40.6422 46.756 38.8378 46.756 36.6H46.256H45.756C45.756 38.6608 45.2093 40.1845 44.1812 41.2438L44.54 41.592ZM46.256 36.6V37.1H50.936V36.6V36.1H46.256V36.6ZM50.936 36.6H50.436C50.436 38.7499 49.9998 40.6067 49.1444 42.1859L49.584 42.424L50.0236 42.6621C50.9709 40.9133 51.436 38.8875 51.436 36.6H50.936ZM49.584 42.424L49.1465 42.182C48.2922 43.7263 47.0793 44.9237 45.4979 45.7804L45.736 46.22L45.9741 46.6596C47.7207 45.7136 49.0732 44.3804 50.0215 42.666L49.584 42.424ZM45.736 46.22L45.505 45.7765C43.9264 46.5988 42.033 47.02 39.808 47.02V47.52V48.02C42.159 48.02 44.2176 47.5746 45.967 46.6635L45.736 46.22ZM57.7797 47L57.2958 46.8741L57.1329 47.5H57.7797V47ZM67.6597 9.04V8.54H67.2732L67.1758 8.91406L67.6597 9.04ZM73.9517 9.04L74.4357 8.91468L74.3387 8.54H73.9517V9.04ZM83.7797 47V47.5H84.4256L84.2637 46.8747L83.7797 47ZM79.0477 47L78.5623 47.1201L78.6563 47.5H79.0477V47ZM76.5517 36.912L77.0371 36.7919L76.9431 36.412H76.5517V36.912ZM65.0597 36.912V36.412H64.6683L64.5743 36.7919L65.0597 36.912ZM62.5637 47V47.5H62.9551L63.0491 47.1201L62.5637 47ZM65.9957 32.96L65.5104 32.8397L65.3567 33.46H65.9957V32.96ZM75.5637 32.96V33.46H76.2034L76.0489 32.8392L75.5637 32.96ZM72.6517 21.26L73.1369 21.1392L73.1368 21.1387L72.6517 21.26ZM71.3517 15.696L71.8411 15.5936L71.8411 15.5936L71.3517 15.696ZM70.7797 12.784L71.2739 12.708H70.2855L70.7797 12.784ZM70.2077 15.696L69.7183 15.5936L69.7183 15.5936L70.2077 15.696ZM68.9077 21.208L68.4231 21.0849L68.4224 21.0877L68.9077 21.208ZM57.7797 47L58.2636 47.1259L68.1436 9.16594L67.6597 9.04L67.1758 8.91406L57.2958 46.8741L57.7797 47ZM67.6597 9.04V9.54H73.9517V9.04V8.54H67.6597V9.04ZM73.9517 9.04L73.4676 9.16532L83.2956 47.1253L83.7797 47L84.2637 46.8747L74.4357 8.91468L73.9517 9.04ZM83.7797 47V46.5H79.0477V47V47.5H83.7797V47ZM79.0477 47L79.5331 46.8799L77.0371 36.7919L76.5517 36.912L76.0663 37.0321L78.5623 47.1201L79.0477 47ZM76.5517 36.912V36.412H65.0597V36.912V37.412H76.5517V36.912ZM65.0597 36.912L64.5743 36.7919L62.0783 46.8799L62.5637 47L63.0491 47.1201L65.5451 37.0321L65.0597 36.912ZM62.5637 47V46.5H57.7797V47V47.5H62.5637V47ZM65.9957 32.96V33.46H75.5637V32.96V32.46H65.9957V32.96ZM75.5637 32.96L76.0489 32.8392L73.1369 21.1392L72.6517 21.26L72.1665 21.3808L75.0785 33.0808L75.5637 32.96ZM72.6517 21.26L73.1368 21.1387C72.583 18.9236 72.1513 17.0757 71.8411 15.5936L71.3517 15.696L70.8623 15.7984C71.1761 17.2977 71.6111 19.1591 72.1666 21.3813L72.6517 21.26ZM71.3517 15.696L71.8411 15.5936C71.5284 14.0997 71.3408 13.1428 71.2739 12.708L70.7797 12.784L70.2855 12.86C70.3573 13.3265 70.551 14.311 70.8623 15.7984L71.3517 15.696ZM70.7797 12.784L70.2855 12.708C70.2186 13.1428 70.031 14.0997 69.7183 15.5936L70.2077 15.696L70.6971 15.7984C71.0084 14.311 71.2021 13.3265 71.2739 12.86L70.7797 12.784ZM70.2077 15.696L69.7183 15.5936C69.4082 17.0749 68.9767 18.9049 68.4231 21.0849L68.9077 21.208L69.3923 21.3311C69.948 19.1431 70.3831 17.2984 70.6971 15.7984L70.2077 15.696ZM68.9077 21.208L68.4224 21.0877L65.5104 32.8397L65.9957 32.96L66.481 33.0803L69.393 21.3283L68.9077 21.208ZM28.784 96H28.284V96.5H28.784V96ZM28.784 58.04V57.54H28.284V58.04H28.784ZM46.464 59.444L46.2227 59.882L46.2296 59.8857L46.464 59.444ZM50.416 63.24L50.8496 62.9909L50.8496 62.9909L50.416 63.24ZM49.792 75.564L49.3893 75.2676L49.3857 75.2727L49.792 75.564ZM44.384 79.36L44.239 78.8815L43.6817 79.0504L43.9329 79.5757L44.384 79.36ZM52.34 96V96.5H53.1333L52.7911 95.7843L52.34 96ZM46.828 96L46.3723 96.2058L46.5052 96.5H46.828V96ZM39.548 79.88L40.0037 79.6742L39.8708 79.38H39.548V79.88ZM33.464 79.88V79.38H32.964V79.88H33.464ZM33.464 96V96.5H33.964V96H33.464ZM33.464 75.668H32.964V76.168H33.464V75.668ZM45.216 73.848L45.5747 74.1964L45.5795 74.1913L45.216 73.848ZM45.216 64.072L44.8574 64.4204L44.8574 64.4204L45.216 64.072ZM33.464 62.252V61.752H32.964V62.252H33.464ZM28.784 96H29.284V58.04H28.784H28.284V96H28.784ZM28.784 58.04V58.54H40.536V58.04V57.54H28.784V58.04ZM40.536 58.04V58.54C42.7187 58.54 44.6091 58.9928 46.2227 59.8819L46.464 59.444L46.7053 59.0061C44.9216 58.0232 42.86 57.54 40.536 57.54V58.04ZM46.464 59.444L46.2296 59.8857C47.8471 60.7439 49.0945 61.9434 49.9824 63.4891L50.416 63.24L50.8496 62.9909C49.8655 61.2779 48.4782 59.9467 46.6984 59.0023L46.464 59.444ZM50.416 63.24L49.9824 63.4891C50.8683 65.0311 51.32 66.8491 51.32 68.96H51.82H52.32C52.32 66.7029 51.8357 64.7076 50.8496 62.9909L50.416 63.24ZM51.82 68.96H51.32C51.32 71.4326 50.6703 73.5268 49.3893 75.2677L49.792 75.564L50.1947 75.8603C51.6177 73.9266 52.32 71.6181 52.32 68.96H51.82ZM49.792 75.564L49.3857 75.2727C48.1363 77.0152 46.4281 78.2181 44.239 78.8815L44.384 79.36L44.529 79.8385C46.9159 79.1152 48.813 77.7875 50.1983 75.8553L49.792 75.564ZM44.384 79.36L43.9329 79.5757L51.8889 96.2157L52.34 96L52.7911 95.7843L44.8351 79.1443L44.384 79.36ZM52.34 96V95.5H46.828V96V96.5H52.34V96ZM46.828 96L47.2837 95.7942L40.0037 79.6742L39.548 79.88L39.0923 80.0858L46.3723 96.2058L46.828 96ZM39.548 79.88V79.38H33.464V79.88V80.38H39.548V79.88ZM33.464 79.88H32.964V96H33.464H33.964V79.88H33.464ZM33.464 96V95.5H28.784V96V96.5H33.464V96ZM33.464 75.668V76.168H40.536V75.668V75.168H33.464V75.668ZM40.536 75.668V76.168C42.5907 76.168 44.2877 75.5212 45.5746 74.1964L45.216 73.848L44.8574 73.4996C43.787 74.6015 42.364 75.168 40.536 75.168V75.668ZM45.216 73.848L45.5795 74.1913C46.8607 72.8348 47.484 71.075 47.484 68.96H46.984H46.484C46.484 70.8664 45.9287 72.3652 44.8525 73.5047L45.216 73.848ZM46.984 68.96H47.484C47.484 66.8135 46.8623 65.0491 45.5746 63.7236L45.216 64.072L44.8574 64.4204C45.927 65.5215 46.484 67.0158 46.484 68.96H46.984ZM45.216 64.072L45.5746 63.7236C44.2877 62.3988 42.5907 61.752 40.536 61.752V62.252V62.752C42.364 62.752 43.787 63.3185 44.8574 64.4204L45.216 64.072ZM40.536 62.252V61.752H33.464V62.252V62.752H40.536V62.252ZM33.464 62.252H32.964V75.668H33.464H33.964V62.252H33.464Z" fill="white"/>
<circle cx="78" cy="78" r="22.75" fill="#F2D014" stroke="#F1D014" stroke-width="0.5"/>
<path d="M77.1504 60.5391C77.7026 60.3597 78.2974 60.3597 78.8496 60.5391L87.5762 63.374C88.1284 63.5535 88.6099 63.9033 88.9512 64.373L94.3438 71.7959C94.685 72.2656 94.8691 72.8315 94.8691 73.4121V82.5879C94.8691 83.1685 94.685 83.7344 94.3438 84.2041L88.9512 91.627C88.6099 92.0967 88.1284 92.4465 87.5762 92.626L78.8496 95.4609C78.2974 95.6403 77.7026 95.6403 77.1504 95.4609L68.4238 92.626C67.9406 92.4689 67.5119 92.1811 67.1836 91.7969L67.0488 91.627L61.6562 84.2041C61.315 83.7344 61.1309 83.1685 61.1309 82.5879V73.4121C61.1309 72.8315 61.315 72.2656 61.6562 71.7959L67.0488 64.373C67.3901 63.9033 67.8716 63.5535 68.4238 63.374L77.1504 60.5391Z" fill="#C7AC16" stroke="#F1D014" stroke-width="0.5"/>
<rect x="75" y="66" width="6" height="23" rx="2" fill="#F1D014"/>
</svg>
